<svg width="512" height="512" xmlns="http://www.w3.org/2000/svg" fill="none">
 <g>
  <title>Layer 1</title>
  <ellipse ry="256" rx="256" id="svg_14" cy="256" cx="256" fill="#000014"/>
  <g id="svg_12">
   <path id="svg_1" fill-opacity="0.25" fill="#7E80F7" d="m354.59555,218.27015l-27.83114,26.95053c15.92837,17.35059 25.66464,40.57 25.66464,66.08412c0,22.69939 -7.70638,43.58283 -20.6241,60.1344l28.18897,26.71759c19.36518,-23.57435 31.00609,-53.8413 31.00609,-86.852c0,-35.97235 -13.82368,-68.68753 -36.40446,-93.03465l0,0.00001z"/>
   <path id="svg_2" fill="#7E80F7" d="m216.66133,180.98123c-55.36951,16.98905 -95.66133,68.90974 -95.66133,130.32356c0,66.17658 46.78319,121.32866 108.80186,133.6342c8.68717,1.65912 17.67036,2.51261 26.9512,2.56049c41.53283,-0.22947 78.62693,-19.3795 103.24084,-49.34271l-28.18897,-26.71925c-17.65572,22.62345 -45.04934,37.15106 -75.80494,37.15106c-53.25668,0 -96.42903,-43.55642 -96.42903,-97.28381c0,-53.7274 43.17234,-97.28315 96.42903,-97.28315c27.96614,0 53.15097,12.01071 70.7644,31.19738l27.83114,-26.94921c-24.47566,-26.38858 -59.23734,-42.94477 -97.83596,-43.15921c-14.04488,0.07214 -27.40988,2.02908 -40.09826,5.87064l0.00001,0.00001z"/>
   <path id="svg_3" fill="#7E80F7" d="m179.55423,137.13856c0,-40.11684 34.22656,-72.63805 76.44579,-72.63805c42.21922,0 76.44579,32.52121 76.44579,72.63805l0,72.63805l-38.22288,0l0,-72.63805c0,-20.0585 -17.11247,-36.31903 -38.22288,-36.31903c-21.11043,0 -38.22288,16.26053 -38.22288,36.31903l0,72.63805l-38.22288,0l0,-72.63805l-0.00002,0l-0.00002,0z" clip-rule="evenodd" fill-rule="evenodd"/>
  </g>
 </g>

</svg>