<svg width="23.999999999999996" height="23.999999999999996" xmlns="http://www.w3.org/2000/svg" enable-background="new 0 0 24 24">

 <g>
  <title>Layer 1</title>
  <ellipse ry="11" rx="11" id="svg_2" cy="12" cx="12" fill="white"/>
  <rect id="svg_5" height="2.01765" width="7.314" y="21.97786" x="8.30097" fill="white"/>
  <path id="svg_1" d="m12,0.0098c-6.63,0 -12,5.50506 -12,12.29464c0,5.43312 3.438,10.04048 8.205,11.66489c0.6,0.11573 0.82,-0.26483 0.82,-0.59117c0,-0.29194 -0.01,-1.06556 -0.015,-2.09046c-3.338,0.74131 -4.042,-1.64943 -4.042,-1.64943c-0.546,-1.41901 -1.335,-1.79853 -1.335,-1.79853c-1.087,-0.76216 0.084,-0.74652 0.084,-0.74652c1.205,0.0855 1.838,1.26679 1.838,1.26679c1.07,1.87985 2.809,1.33665 3.495,1.02282c0.108,-0.79552 0.417,-1.33665 0.76,-1.64422c-2.665,-0.30757 -5.466,-1.3648 -5.466,-6.07538c0,-1.34186 0.465,-2.4387 1.235,-3.29887c-0.135,-0.3107 -0.54,-1.56081 0.105,-3.25403c0,0 1.005,-0.32947 3.3,1.26053c0.96,-0.27317 1.98,-0.40871 3,-0.41496c1.02,0.00626 2.04,0.1418 3,0.41496c2.28,-1.59 3.285,-1.26053 3.285,-1.26053c0.645,1.69322 0.24,2.94333 0.12,3.25403c0.765,0.86017 1.23,1.95701 1.23,3.29887c0,4.72309 -2.805,5.76259 -5.475,6.06495c0.42,0.36909 0.81,1.12291 0.81,2.27501c0,1.64526 -0.015,2.96731 -0.015,3.36664c0,0.32217 0.21,0.7069 0.825,0.58387c4.801,-1.61398 8.236,-6.22447 8.236,-11.64925c0,-6.78958 -5.373,-12.29464 -12,-12.29464z"/>
 </g>
</svg>
