<svg width="64" height="64" xmlns="http://www.w3.org/2000/svg">
 <defs>
  <linearGradient y2="100%" y1="0%" x2="50%" x1="50%" id="linearGradient-1">
   <stop stop-color="#2958ce" offset="0"/>
   <stop stop-color="#3f99d9" offset="1"/>
  </linearGradient>
 </defs>
 <g>
  <title>Layer 1</title>
  <ellipse ry="22.75862" rx="23.10344" id="svg_1" cy="32" cx="32" fill="#fff"/>
  <g fill-rule="evenodd" fill="none" id="Icons">
   <g fill="url(#linearGradient-1)" id="Social-Media-Collection">
    <g id="Paypal">
     <path d="m45.334,31.184c-1.148,5.89 -5.072,7.928 -10.086,7.928l-0.774,0c-0.614,0 -1.134,0.446 -1.23,1.05l-0.064,0.342l-0.974,6.182l-0.052,0.264c-0.094,0.604 -0.616,1.05 -1.228,1.05l-4.244,0l1.95,-12.456l2.618,0c7.212,0 11.76,-3.508 13.186,-10.138c1.138,1.432 1.358,3.414 0.898,5.778zm-26.036,13.266c-0.526,0 -0.926,-0.47 -0.844,-0.988l4.14,-26.26c0.11,-0.692 0.706,-1.202 1.406,-1.202l9.946,0c3.426,0 6.104,0.724 7.586,2.412c1.346,1.534 1.72,3.226 1.35,5.718c0,0 -0.064,0.384 -0.102,0.582c-1.312,6.734 -5.8,9.062 -11.53,9.062l-2.918,0c-0.7,0 -1.292,0.51 -1.402,1.202l0.048,-0.306l-1.542,9.78l-6.138,0zm12.702,-44.45c-17.672,0 -32,14.326 -32,32s14.328,32 32,32c17.674,0 32,-14.326 32,-32s-14.326,-32 -32,-32z" id="Fill-231"/>
    </g>
   </g>
  </g>
 </g>
</svg>
